<?xml version="1.0" encoding="UTF-8" standalone="no"?>
<!DOCTYPE svg PUBLIC "-//W3C//DTD SVG 1.1//EN"
 "http://www.w3.org/Graphics/SVG/1.1/DTD/svg11.dtd">
<!-- Generated by graphviz version 12.1.2 (20240928.0832)
 -->
<!-- Title: Sensors.cpp Pages: 1 -->
<svg width="598pt" height="143pt"
 viewBox="0.00 0.00 598.25 143.00" xmlns="http://www.w3.org/2000/svg" xmlns:xlink="http://www.w3.org/1999/xlink">
<g id="graph0" class="graph" transform="scale(1 1) rotate(0) translate(4 139)">
<title>Sensors.cpp</title>
<!-- Node1 -->
<g id="Node000001" class="node">
<title>Node1</title>
<g id="a_Node000001"><a xlink:title="Sensors functions source.">
<polygon fill="#999999" stroke="#666666" points="290.25,-114.5 290.25,-134.5 361,-134.5 361,-114.5 290.25,-114.5"/>
<text text-anchor="middle" x="325.62" y="-121" font-family="Helvetica,sans-Serif" font-size="10.00">Sensors.cpp</text>
</a>
</g>
</g>
<!-- Node2 -->
<g id="Node000002" class="node">
<title>Node2</title>
<g id="a_Node000002"><a xlink:title=" ">
<polygon fill="#e0e0e0" stroke="#999999" points="0,-57.5 0,-77.5 111.25,-77.5 111.25,-57.5 0,-57.5"/>
<text text-anchor="middle" x="55.62" y="-64" font-family="Helvetica,sans-Serif" font-size="10.00">Adafruit_VEML7700.h</text>
</a>
</g>
</g>
<!-- Node1&#45;&gt;Node2 -->
<g id="edge1_Node000001_Node000002" class="edge">
<title>Node1&#45;&gt;Node2</title>
<g id="a_edge1_Node000001_Node000002"><a xlink:title=" ">
<path fill="none" stroke="#63b8ff" d="M289.77,-116.2C244.64,-107 166.56,-91.1 113.07,-80.2"/>
<polygon fill="#63b8ff" stroke="#63b8ff" points="114.03,-76.82 103.53,-78.26 112.63,-83.68 114.03,-76.82"/>
</a>
</g>
</g>
<!-- Node3 -->
<g id="Node000003" class="node">
<title>Node3</title>
<g id="a_Node000003"><a xlink:title=" ">
<polygon fill="#e0e0e0" stroke="#999999" points="129.38,-57.5 129.38,-77.5 173.88,-77.5 173.88,-57.5 129.38,-57.5"/>
<text text-anchor="middle" x="151.62" y="-64" font-family="Helvetica,sans-Serif" font-size="10.00">Wire.h</text>
</a>
</g>
</g>
<!-- Node1&#45;&gt;Node3 -->
<g id="edge2_Node000001_Node000003" class="edge">
<title>Node1&#45;&gt;Node3</title>
<g id="a_edge2_Node000001_Node000003"><a xlink:title=" ">
<path fill="none" stroke="#63b8ff" d="M295.71,-114.05C264.86,-104.29 216.85,-89.12 184.83,-79"/>
<polygon fill="#63b8ff" stroke="#63b8ff" points="186.26,-75.78 175.67,-76.1 184.15,-82.45 186.26,-75.78"/>
</a>
</g>
</g>
<!-- Node4 -->
<g id="Node000004" class="node">
<title>Node4</title>
<g id="a_Node000004"><a xlink:title=" ">
<polygon fill="#e0e0e0" stroke="#999999" points="192.38,-57.5 192.38,-77.5 254.88,-77.5 254.88,-57.5 192.38,-57.5"/>
<text text-anchor="middle" x="223.62" y="-64" font-family="Helvetica,sans-Serif" font-size="10.00">OneWire.h</text>
</a>
</g>
</g>
<!-- Node1&#45;&gt;Node4 -->
<g id="edge3_Node000001_Node000004" class="edge">
<title>Node1&#45;&gt;Node4</title>
<g id="a_edge3_Node000001_Node000004"><a xlink:title=" ">
<path fill="none" stroke="#63b8ff" d="M308.32,-114.17C292.64,-105.72 269.27,-93.11 251.05,-83.29"/>
<polygon fill="#63b8ff" stroke="#63b8ff" points="252.81,-80.26 242.35,-78.59 249.49,-86.42 252.81,-80.26"/>
</a>
</g>
</g>
<!-- Node5 -->
<g id="Node000005" class="node">
<title>Node5</title>
<g id="a_Node000005"><a xlink:title=" ">
<polygon fill="#e0e0e0" stroke="#999999" points="272.62,-57.5 272.62,-77.5 378.62,-77.5 378.62,-57.5 272.62,-57.5"/>
<text text-anchor="middle" x="325.62" y="-64" font-family="Helvetica,sans-Serif" font-size="10.00">DallasTemperature.h</text>
</a>
</g>
</g>
<!-- Node1&#45;&gt;Node5 -->
<g id="edge4_Node000001_Node000005" class="edge">
<title>Node1&#45;&gt;Node5</title>
<g id="a_edge4_Node000001_Node000005"><a xlink:title=" ">
<path fill="none" stroke="#63b8ff" d="M325.62,-114.42C325.62,-107.53 325.62,-97.8 325.62,-89.06"/>
<polygon fill="#63b8ff" stroke="#63b8ff" points="329.13,-89.29 325.63,-79.29 322.13,-89.29 329.13,-89.29"/>
</a>
</g>
</g>
<!-- Node6 -->
<g id="Node000006" class="node">
<title>Node6</title>
<g id="a_Node000006"><a xlink:title=" ">
<polygon fill="#e0e0e0" stroke="#999999" points="397,-57.5 397,-77.5 490.25,-77.5 490.25,-57.5 397,-57.5"/>
<text text-anchor="middle" x="443.62" y="-64" font-family="Helvetica,sans-Serif" font-size="10.00">SdsDustSensor.h</text>
</a>
</g>
</g>
<!-- Node1&#45;&gt;Node6 -->
<g id="edge5_Node000001_Node000006" class="edge">
<title>Node1&#45;&gt;Node6</title>
<g id="a_edge5_Node000001_Node000006"><a xlink:title=" ">
<path fill="none" stroke="#63b8ff" d="M345.91,-114.05C364.43,-105.41 392.05,-92.54 413.21,-82.68"/>
<polygon fill="#63b8ff" stroke="#63b8ff" points="414.65,-85.87 422.23,-78.47 411.69,-79.52 414.65,-85.87"/>
</a>
</g>
</g>
<!-- Node7 -->
<g id="Node000007" class="node">
<title>Node7</title>
<g id="a_Node000007"><a xlink:href="_sensors_8h.html" target="_top" xlink:title="Sensors header.">
<polygon fill="white" stroke="#666666" points="508.5,-57.5 508.5,-77.5 568.75,-77.5 568.75,-57.5 508.5,-57.5"/>
<text text-anchor="middle" x="538.62" y="-64" font-family="Helvetica,sans-Serif" font-size="10.00">Sensors.h</text>
</a>
</g>
</g>
<!-- Node1&#45;&gt;Node7 -->
<g id="edge6_Node000001_Node000007" class="edge">
<title>Node1&#45;&gt;Node7</title>
<g id="a_edge6_Node000001_Node000007"><a xlink:title=" ">
<path fill="none" stroke="#63b8ff" d="M361.28,-114.29C398.68,-104.64 457.42,-89.47 496.94,-79.26"/>
<polygon fill="#63b8ff" stroke="#63b8ff" points="497.77,-82.66 506.58,-76.77 496.02,-75.89 497.77,-82.66"/>
</a>
</g>
</g>
<!-- Node8 -->
<g id="Node000008" class="node">
<title>Node8</title>
<g id="a_Node000008"><a xlink:title=" ">
<polygon fill="#e0e0e0" stroke="#999999" points="545,-0.5 545,-20.5 590.25,-20.5 590.25,-0.5 545,-0.5"/>
<text text-anchor="middle" x="567.62" y="-7" font-family="Helvetica,sans-Serif" font-size="10.00">cstdint</text>
</a>
</g>
</g>
<!-- Node1&#45;&gt;Node8 -->
<g id="edge8_Node000001_Node000008" class="edge">
<title>Node1&#45;&gt;Node8</title>
<g id="a_edge8_Node000001_Node000008"><a xlink:title=" ">
<path fill="none" stroke="#63b8ff" d="M361.34,-122.47C424.19,-119.82 550.47,-110.49 577.62,-78 588.38,-65.13 583.92,-45.78 577.93,-31.26"/>
<polygon fill="#63b8ff" stroke="#63b8ff" points="581.12,-29.81 573.71,-22.24 574.78,-32.78 581.12,-29.81"/>
</a>
</g>
</g>
<!-- Node7&#45;&gt;Node8 -->
<g id="edge7_Node000007_Node000008" class="edge">
<title>Node7&#45;&gt;Node8</title>
<g id="a_edge7_Node000007_Node000008"><a xlink:title=" ">
<path fill="none" stroke="#63b8ff" d="M543.41,-57.42C547.21,-50.22 552.65,-39.9 557.42,-30.86"/>
<polygon fill="#63b8ff" stroke="#63b8ff" points="560.46,-32.6 562.03,-22.12 554.27,-29.33 560.46,-32.6"/>
</a>
</g>
</g>
</g>
</svg>
