<?xml version="1.0" encoding="UTF-8" standalone="no"?>
<!DOCTYPE svg PUBLIC "-//W3C//DTD SVG 1.1//EN"
 "http://www.w3.org/Graphics/SVG/1.1/DTD/svg11.dtd">
<!-- Generated by graphviz version 12.1.2 (20240928.0832)
 -->
<!-- Title: Graph Legend Pages: 1 -->
<svg width="505pt" height="167pt"
 viewBox="0.00 0.00 505.38 167.00" xmlns="http://www.w3.org/2000/svg" xmlns:xlink="http://www.w3.org/1999/xlink">
<g id="graph0" class="graph" transform="scale(1 1) rotate(0) translate(4 163)">
<title>Graph Legend</title>
<!-- Node9 -->
<g id="Node000009" class="node">
<title>Node9</title>
<g id="a_Node000009"><a xlink:title=" ">
<polygon fill="#999999" stroke="#666666" points="237,-0.5 237,-20.5 290.5,-20.5 290.5,-0.5 237,-0.5"/>
<text text-anchor="middle" x="263.75" y="-7" font-family="Helvetica,sans-Serif" font-size="10.00">Inherited</text>
</a>
</g>
</g>
<!-- Node10 -->
<g id="Node000010" class="node">
<title>Node10</title>
<g id="a_Node000010"><a xlink:title=" ">
<polygon fill="white" stroke="#666666" points="0,-69.5 0,-89.5 65.5,-89.5 65.5,-69.5 0,-69.5"/>
<text text-anchor="middle" x="32.75" y="-76" font-family="Helvetica,sans-Serif" font-size="10.00">PublicBase</text>
</a>
</g>
</g>
<!-- Node10&#45;&gt;Node9 -->
<g id="edge1" class="edge">
<title>Node10&#45;&gt;Node9</title>
<g id="a_edge1"><a xlink:title=" ">
<path fill="none" stroke="#63b8ff" d="M76.15,-65.91C123.32,-52.23 197.21,-30.8 236.71,-19.34"/>
<polygon fill="#63b8ff" stroke="#63b8ff" points="75.44,-62.47 66.81,-68.62 77.39,-69.2 75.44,-62.47"/>
</a>
</g>
</g>
<!-- Node11 -->
<g id="Node000011" class="node">
<title>Node11</title>
<g id="a_Node000011"><a xlink:title=" ">
<polygon fill="#fff0f0" stroke="red" points="3,-138.5 3,-158.5 62.5,-158.5 62.5,-138.5 3,-138.5"/>
<text text-anchor="middle" x="32.75" y="-145" font-family="Helvetica,sans-Serif" font-size="10.00">Truncated</text>
</a>
</g>
</g>
<!-- Node11&#45;&gt;Node10 -->
<g id="edge2" class="edge">
<title>Node11&#45;&gt;Node10</title>
<g id="a_edge2"><a xlink:title=" ">
<path fill="none" stroke="#63b8ff" d="M32.75,-127.01C32.75,-114.57 32.75,-99.31 32.75,-89.74"/>
<polygon fill="#63b8ff" stroke="#63b8ff" points="29.25,-126.67 32.75,-136.67 36.25,-126.67 29.25,-126.67"/>
</a>
</g>
</g>
<!-- Node13 -->
<g id="node4" class="node">
<title>Node13</title>
<g id="a_node4"><a xlink:title=" ">
<polygon fill="white" stroke="#666666" points="83.5,-69.5 83.5,-89.5 164,-89.5 164,-69.5 83.5,-69.5"/>
<text text-anchor="middle" x="123.75" y="-76" font-family="Helvetica,sans-Serif" font-size="10.00">ProtectedBase</text>
</a>
</g>
</g>
<!-- Node13&#45;&gt;Node9 -->
<g id="edge3" class="edge">
<title>Node13&#45;&gt;Node9</title>
<g id="a_edge3"><a xlink:title=" ">
<path fill="none" stroke="darkgreen" d="M153.67,-64.18C180.99,-51.11 220.58,-32.16 244.09,-20.91"/>
<polygon fill="darkgreen" stroke="darkgreen" points="152.39,-60.92 144.88,-68.39 155.41,-67.23 152.39,-60.92"/>
</a>
</g>
</g>
<!-- Node14 -->
<g id="node5" class="node">
<title>Node14</title>
<g id="a_node5"><a xlink:title=" ">
<polygon fill="white" stroke="#666666" points="182.12,-69.5 182.12,-89.5 251.38,-89.5 251.38,-69.5 182.12,-69.5"/>
<text text-anchor="middle" x="216.75" y="-76" font-family="Helvetica,sans-Serif" font-size="10.00">PrivateBase</text>
</a>
</g>
</g>
<!-- Node14&#45;&gt;Node9 -->
<g id="edge4" class="edge">
<title>Node14&#45;&gt;Node9</title>
<g id="a_edge4"><a xlink:title=" ">
<path fill="none" stroke="#8b1a1a" d="M229.78,-59.93C238.72,-47.18 250.21,-30.8 257.27,-20.74"/>
<polygon fill="#8b1a1a" stroke="#8b1a1a" points="227.03,-57.75 224.15,-67.94 232.76,-61.77 227.03,-57.75"/>
</a>
</g>
</g>
<!-- Node15 -->
<g id="Node000015" class="node">
<title>Node15</title>
<g id="a_Node000015"><a xlink:title=" ">
<polygon fill="#e0e0e0" stroke="#999999" points="269.75,-69.5 269.75,-89.5 351.75,-89.5 351.75,-69.5 269.75,-69.5"/>
<text text-anchor="middle" x="310.75" y="-76" font-family="Helvetica,sans-Serif" font-size="10.00">Undocumented</text>
</a>
</g>
</g>
<!-- Node15&#45;&gt;Node9 -->
<g id="edge5" class="edge">
<title>Node15&#45;&gt;Node9</title>
<g id="a_edge5"><a xlink:title=" ">
<path fill="none" stroke="#63b8ff" d="M297.72,-59.93C288.78,-47.18 277.29,-30.8 270.23,-20.74"/>
<polygon fill="#63b8ff" stroke="#63b8ff" points="294.74,-61.77 303.35,-67.94 300.47,-57.75 294.74,-61.77"/>
</a>
</g>
</g>
<!-- Node16 -->
<g id="node7" class="node">
<title>Node16</title>
<g id="a_node7"><a xlink:title=" ">
<polygon fill="white" stroke="#666666" points="369.38,-69.5 369.38,-89.5 440.12,-89.5 440.12,-69.5 369.38,-69.5"/>
<text text-anchor="middle" x="404.75" y="-76" font-family="Helvetica,sans-Serif" font-size="10.00">Templ&lt; int &gt;</text>
</a>
</g>
</g>
<!-- Node16&#45;&gt;Node9 -->
<g id="edge6" class="edge">
<title>Node16&#45;&gt;Node9</title>
<g id="a_edge6"><a xlink:title=" ">
<path fill="none" stroke="#63b8ff" d="M374.61,-64.18C347.1,-51.11 307.23,-32.16 283.55,-20.91"/>
<polygon fill="#63b8ff" stroke="#63b8ff" points="372.95,-67.26 383.48,-68.39 375.95,-60.94 372.95,-67.26"/>
</a>
</g>
</g>
<!-- Node17 -->
<g id="node8" class="node">
<title>Node17</title>
<g id="a_node8"><a xlink:title=" ">
<polygon fill="white" stroke="#666666" points="372,-138.5 372,-158.5 437.5,-158.5 437.5,-138.5 372,-138.5"/>
<text text-anchor="middle" x="404.75" y="-145" font-family="Helvetica,sans-Serif" font-size="10.00">Templ&lt; T &gt;</text>
</a>
</g>
</g>
<!-- Node17&#45;&gt;Node16 -->
<g id="edge7" class="edge">
<title>Node17&#45;&gt;Node16</title>
<g id="a_edge7"><a xlink:title=" ">
<path fill="none" stroke="orange" stroke-dasharray="5,2" d="M404.75,-127.01C404.75,-114.57 404.75,-99.31 404.75,-89.74"/>
<polygon fill="orange" stroke="orange" points="401.25,-126.67 404.75,-136.67 408.25,-126.67 401.25,-126.67"/>
</a>
</g>
<text text-anchor="middle" x="419" y="-110.5" font-family="Helvetica,sans-Serif" font-size="10.00" fill="grey">&lt; int &gt;</text>
</g>
<!-- Node18 -->
<g id="node9" class="node">
<title>Node18</title>
<g id="a_node9"><a xlink:title=" ">
<polygon fill="white" stroke="#666666" points="458.12,-69.5 458.12,-89.5 497.38,-89.5 497.38,-69.5 458.12,-69.5"/>
<text text-anchor="middle" x="477.75" y="-76" font-family="Helvetica,sans-Serif" font-size="10.00">Used</text>
</a>
</g>
</g>
<!-- Node18&#45;&gt;Node9 -->
<g id="edge8" class="edge">
<title>Node18&#45;&gt;Node9</title>
<g id="a_edge8"><a xlink:title=" ">
<path fill="none" stroke="#9a32cd" stroke-dasharray="5,2" d="M447.11,-68.51C385.56,-48.91 324.84,-30.2 290.75,-19.75"/>
<polygon fill="#9a32cd" stroke="#9a32cd" points="445.76,-71.75 456.35,-71.46 447.89,-65.08 445.76,-71.75"/>
</a>
</g>
<text text-anchor="middle" x="417.78" y="-41.5" font-family="Helvetica,sans-Serif" font-size="10.00" fill="grey">m_usedClass</text>
</g>
</g>
</svg>
