M48
; DRILL file {KiCad 9.0.0} date 2025-05-21T17:06:58+0200
; FORMAT={-:-/ absolute / inch / decimal}
; #@! TF.CreationDate,2025-05-21T17:06:58+02:00
; #@! TF.GenerationSoftware,Kicad,Pcbnew,9.0.0
; #@! TF.FileFunction,Plated,1,4,PTH
FMAT,2
INCH
; #@! TA.AperFunction,Plated,PTH,ViaDrill
T1C0.0118
; #@! TA.AperFunction,Plated,PTH,ComponentDrill
T2C0.0118
; #@! TA.AperFunction,Plated,PTH,ComponentDrill
T3C0.0197
; #@! TA.AperFunction,Plated,PTH,ComponentDrill
T4C0.0236
; #@! TA.AperFunction,Plated,PTH,ComponentDrill
T5C0.0276
; #@! TA.AperFunction,Plated,PTH,ComponentDrill
T6C0.0315
; #@! TA.AperFunction,Plated,PTH,ComponentDrill
T7C0.0394
; #@! TA.AperFunction,Plated,PTH,ComponentDrill
T8C0.0984
; #@! TA.AperFunction,Plated,PTH,ComponentDrill
T9C0.1063
%
G90
G05
T1
X0.9217Y-2.1772
X0.9646Y-1.6535
X0.9646Y-1.9488
X0.9646Y-2.0472
X0.9646Y-2.8346
X0.9646Y-4.1732
X0.9646Y-4.7244
X0.974Y-3.3134
X0.9843Y-3.5236
X0.9948Y-4.6045
X1.0188Y-4.6274
X1.0326Y-3.9506
X1.0433Y-2.8346
X1.0535Y-4.6274
X1.063Y-1.752
X1.063Y-3.0709
X1.0693Y-3.9514
X1.0881Y-4.6274
X1.1059Y-3.9514
X1.1417Y-3.2087
X1.1661Y-3.8339
X1.1661Y-3.8679
X1.1661Y-3.9019
X1.1665Y-4.5038
X1.1665Y-4.5377
X1.1665Y-4.5717
X1.1916Y-2.2004
X1.1995Y-2.3766
X1.2063Y-2.3386
X1.2205Y-2.7165
X1.2205Y-2.8346
X1.2228Y-2.3618
X1.2354Y-3.9408
X1.2389Y-4.6152
X1.2846Y-2.2979
X1.2878Y-2.5752
X1.2992Y-1.752
X1.3012Y-1.989
X1.3189Y-4.0748
X1.32Y-3.9349
X1.3539Y-3.6758
X1.3543Y-4.3443
X1.3558Y-3.9349
X1.3591Y-2.0984
X1.3763Y-4.6187
X1.381Y-3.9097
X1.3826Y-4.5801
X1.3917Y-2.1567
X1.3957Y-2.3429
X1.3965Y-2.5988
X1.3976Y-2.4197
X1.3976Y-3.2087
X1.4055Y-2.1941
X1.4063Y-2.5728
X1.411Y-2.2575
X1.4134Y-2.4681
X1.4181Y-2.1685
X1.4184Y-4.5967
X1.4228Y-2.3417
X1.4311Y-2.3161
X1.437Y-2.7165
X1.437Y-2.8346
X1.4413Y-2.4677
X1.4764Y-2.5931
X1.4882Y-2.4811
X1.4885Y-4.5884
X1.4969Y-2.0882
X1.498Y-3.9227
X1.5003Y-3.9589
X1.5031Y-2.2075
X1.5043Y-2.4575
X1.5125Y-4.6164
X1.5185Y-2.1748
X1.5201Y-2.4945
X1.5209Y-2.5563
X1.5213Y-2.235
X1.5236Y-2.1067
X1.524Y-2.5252
X1.5244Y-2.435
X1.5248Y-2.4016
X1.5354Y-2.2047
X1.5354Y-3.5039
X1.5354Y-4.0748
X1.5354Y-4.7244
X1.5409Y-3.9691
X1.5461Y-2.0878
X1.5499Y-4.6215
X1.5516Y-4.2917
X1.5713Y-2.1071
X1.5755Y-3.9723
X1.5905Y-4.6187
X1.5932Y-1.9829
X1.5953Y-2.0866
X1.6083Y-2.0327
X1.6091Y-2.063
X1.6326Y-4.5026
X1.6835Y-4.4378
X1.6929Y-3.6811
X1.6933Y-2.702
X1.726Y-3.4972
X1.7717Y-1.7323
X1.7717Y-2.2638
X1.8106Y-3.0429
X1.828Y-3.0087
X1.8295Y-2.478
X1.8295Y-2.5173
X1.8295Y-2.5567
X1.8295Y-2.5961
X1.8561Y-2.4583
X1.8561Y-2.4977
X1.8561Y-2.537
X1.8561Y-2.5764
X1.8561Y-2.6158
X1.8898Y-4.1339
X1.8945Y-2.4258
X1.8973Y-2.6423
X1.9082Y-3.6364
X1.9279Y-3.4002
X1.9322Y-4.6648
X1.9339Y-2.4258
X1.9367Y-2.6423
X1.9456Y-3.6313
X1.9476Y-3.4396
X1.9476Y-3.479
X1.9476Y-3.5183
X1.9488Y-2.2638
X1.9507Y-3.5687
X1.9578Y-3.601
X1.9594Y-4.6919
X1.9598Y-3.6691
X1.9673Y-2.9868
X1.9733Y-2.4258
X1.9771Y-2.6423
X1.983Y-4.6549
X1.9869Y-3.6955
X2.0066Y-2.9868
X2.0066Y-3.912
X2.0074Y-4.5463
X2.0136Y-2.4583
X2.0136Y-2.6158
X2.0263Y-3.9514
X2.0271Y-4.6561
X2.0351Y-2.4868
X2.0551Y-2.5856
X2.0681Y-2.4518
X2.0854Y-3.9514
X2.0854Y-4.4632
X2.0854Y-4.6797
X2.0936Y-2.5888
X2.1138Y-2.4868
X2.1165Y-3.5535
X2.1247Y-3.9317
X2.1247Y-4.6404
X2.126Y-1.7323
X2.126Y-2.2638
X2.1318Y-2.5868
X2.1515Y-3.6451
X2.1532Y-2.4868
X2.1641Y-2.79
X2.17Y-3.6794
X2.1716Y-3.6042
X2.1744Y-2.5888
X2.1779Y-4.6896
X2.2011Y-2.4502
X2.2035Y-2.79
X2.2047Y-3.2829
X2.209Y-2.5892
X2.2114Y-3.327
X2.2232Y-2.6719
X2.2232Y-2.7309
X2.2232Y-3.912
X2.2279Y-2.6246
X2.2327Y-4.4744
X2.2369Y-2.4986
X2.2389Y-3.2805
X2.2429Y-3.3412
X2.2429Y-3.9514
X2.2441Y-4.1339
X2.2625Y-2.7703
X2.2654Y-3.5372
X2.27Y-3.0356
X2.2713Y-2.8215
X2.2713Y-2.8608
X2.2747Y-2.5179
X2.2755Y-2.99
X2.3019Y-2.849
X2.3019Y-2.9278
X2.3019Y-2.9671
X2.3019Y-3.0656
X2.3019Y-3.9514
X2.3062Y-2.5597
X2.3107Y-2.7624
X2.3133Y-3.0262
X2.3192Y-2.5951
X2.3216Y-2.8884
X2.3378Y-3.4886
X2.3413Y-3.1246
X2.3413Y-3.9317
X2.3425Y-3.6421
X2.3543Y-4.5465
X2.3559Y-4.6469
X2.361Y-2.7703
X2.361Y-2.8687
X2.3622Y-1.7323
X2.3622Y-2.2441
X2.3669Y-3.7339
X2.3768Y-1.9047
X2.3976Y-3.0136
X2.4003Y-3.0853
X2.4003Y-4.4829
X2.4091Y-2.9199
X2.4091Y-2.979
X2.4126Y-1.9047
X2.4137Y-3.0518
X2.4445Y-3.4803
X2.4535Y-3.4445
X2.4571Y-3.6394
X2.4594Y-4.4435
X2.4642Y-1.9047
X2.4937Y-1.9047
X2.5008Y-3.4465
X2.513Y-3.6413
X2.5311Y-3.0055
X2.5358Y-4.0004
X2.5417Y-3.2193
X2.544Y-2.1207
X2.5578Y-2.5144
X2.5578Y-2.5538
X2.5578Y-2.5931
X2.572Y-4.6368
X2.5909Y-2.775
X2.5921Y-1.938
X2.5972Y-2.4947
X2.6039Y-1.9632
X2.6043Y-2.188
X2.6169Y-2.9081
X2.6184Y-2.2148
X2.6202Y-1.938
X2.6256Y-2.7624
X2.6322Y-2.188
X2.6324Y-1.9632
X2.6366Y-2.8097
X2.6409Y-3.4843
X2.6482Y-1.938
X2.6488Y-2.2148
X2.6602Y-2.188
X2.661Y-1.9632
X2.6614Y-3.6323
X2.6629Y-2.7774
X2.6709Y-3.4724
X2.6752Y-1.9378
X2.6759Y-2.8097
X2.683Y-2.8608
X2.6933Y-4.0004
X2.711Y-2.1632
X2.713Y-3.6354
X2.7178Y-3.5332
X2.7484Y-4.55
X2.761Y-3.4173
X2.7717Y-1.9047
X2.7736Y-4.4864
X2.794Y-2.4628
X2.8012Y-1.9047
X2.8019Y-2.9947
X2.8028Y-4.5516
X2.8058Y-3.038
X2.8157Y-3.5079
X2.8232Y-2.4494
X2.8248Y-2.263
X2.8255Y-2.486
X2.8354Y-3.6902
X2.8441Y-3.5079
X2.8531Y-4.5026
X2.8559Y-2.7437
X2.8571Y-1.9047
X2.863Y-2.2575
X2.8882Y-2.2268
X2.8886Y-1.9047
X2.9141Y-2.4608
X2.9405Y-3.4315
X2.9457Y-1.9047
X2.9528Y-1.7323
X2.959Y-3.7839
X2.9712Y-3.1246
X2.9807Y-1.9047
X2.9921Y-4.2126
X3.0287Y-4.5506
X3.0433Y-4.4638
X3.0512Y-3.4646
X3.0515Y-4.5778
X3.0586Y-3.0479
X3.0747Y-3.1246
X3.0784Y-3.0183
X3.0854Y-3.2585
X3.0862Y-3.2014
X3.0893Y-2.9671
X3.0906Y-2.2835
X3.0906Y-2.5591
X3.0921Y-4.5419
X3.1007Y-3.2301
X3.1877Y-4.4238
X3.1877Y-4.6797
X3.189Y-4.0157
X3.189Y-4.2126
X3.2369Y-4.3636
X3.3015Y-3.9581
X3.3051Y-2.7258
X3.3058Y-2.6916
X3.32Y-1.6502
X3.3255Y-2.7506
X3.3326Y-3.9392
X3.3405Y-2.9514
X3.3452Y-1.7664
X3.3452Y-3.8727
X3.3465Y-1.8167
X3.3519Y-3.9045
X3.3535Y-1.6616
X3.3538Y-1.8663
X3.3538Y-2.164
X3.3543Y-2.0584
X3.3556Y-1.9734
X3.3562Y-2.2139
X3.3562Y-1.9325
X3.3562Y-3.9624
X3.3592Y-2.3709
X3.3624Y-2.1137
X3.3669Y-2.9703
X3.3676Y-2.4048
X3.3814Y-2.9392
X3.3909Y-3.0065
X3.4145Y-4.6683
X3.4153Y-4.7427
X3.4165Y-4.7065
X3.4614Y-1.6608
X3.4633Y-1.8845
X3.4787Y-1.9616
X3.483Y-1.7664
X3.483Y-1.8254
X3.483Y-2.2979
X3.4842Y-2.0152
X3.502Y-3.2823
X3.5035Y-3.1921
X3.5055Y-2.1467
X3.509Y-1.6482
X3.5224Y-2.101
X3.5361Y-2.3008
X3.5583Y-4.4811
X3.5618Y-1.7664
X3.5618Y-1.8254
X3.5618Y-1.9042
X3.6208Y-2.2782
X3.6208Y-2.416
X3.6401Y-2.8164
X3.6401Y-2.8506
X3.6401Y-2.8872
X3.6405Y-1.7664
X3.6405Y-1.8254
X3.6417Y-2.9744
X3.6602Y-2.3175
X3.6602Y-3.8727
X3.6799Y-3.912
X3.6921Y-2.0864
X3.6995Y-2.1797
X3.6995Y-3.8727
X3.7089Y-2.4356
X3.7114Y-2.2703
X3.7192Y-3.912
X3.7389Y-3.8727
X3.7456Y-3.1742
X3.7586Y-1.7664
X3.7586Y-1.8254
X3.7586Y-2.3057
X3.7618Y-2.7132
X3.77Y-2.2723
X3.7783Y-2.101
X3.7783Y-2.5144
X3.7783Y-2.8884
X3.7783Y-2.9278
X3.7795Y-3.0906
X3.7795Y-4.2913
X3.7901Y-2.9628
X3.798Y-1.9829
X3.857Y-1.7664
X3.857Y-1.8254
X3.857Y-1.9042
X3.8629Y-4.6671
X3.8646Y-4.2961
X3.8767Y-2.416
X3.8767Y-4.6994
X3.8767Y-4.7388
X3.8964Y-2.0616
X3.8964Y-2.2585
X3.8964Y-2.2979
X3.8964Y-4.5419
X3.9078Y-2.1309
X3.9259Y-4.0234
X3.9358Y-4.6601
X3.9411Y-4.3165
X3.9516Y-4.539
X3.9555Y-1.7664
X3.9555Y-1.8254
X3.9555Y-2.0026
X3.9555Y-2.2979
X3.9555Y-2.431
X3.9625Y-4.025
X3.9751Y-4.6601
X3.9906Y-4.539
X3.9925Y-4.0486
X4.0001Y-4.3361
X4.0079Y-1.8652
X4.0145Y-1.9238
X4.0145Y-2.0616
X4.0145Y-2.1601
X4.0145Y-4.6601
X4.0192Y-2.2333
X4.0342Y-1.6569
X4.0342Y-2.4356
X4.0354Y-2.5168
X4.0366Y-2.5518
X4.0446Y-1.716
X4.0582Y-2.5849
X4.0618Y-2.7778
X4.0618Y-2.9211
X4.1039Y-4.3215
X4.1129Y-4.6994
X4.1129Y-4.7388
X4.1255Y-4.6632
X4.1358Y-4.3018
X4.1425Y-4.3368
X4.148Y-4.5315
X4.1492Y-2.1156
X4.1523Y-1.6679
X4.1523Y-1.9238
X4.1527Y-2.0644
X4.1621Y-2.1699
X4.1637Y-1.7057
X4.1886Y-4.5323
X4.1917Y-1.8152
X4.1929Y-3.189
X4.2023Y-1.7652
X4.311Y-3.9764
X4.311Y-4.7047
T2
X1.2232Y-2.4475
X1.2232Y-2.4947
X1.2232Y-2.5419
X1.2783Y-2.4475
X1.2783Y-2.4947
X1.2783Y-2.5419
X2.6129Y-2.0419
X2.6129Y-2.0616
X2.6129Y-2.0813
X2.6129Y-2.101
X2.6129Y-2.1207
X2.6326Y-2.0419
X2.6326Y-2.0616
X2.6326Y-2.0813
X2.6326Y-2.101
X2.6326Y-2.1207
X2.6523Y-2.0419
X2.6523Y-2.0616
X2.6523Y-2.0813
X2.6523Y-2.101
X2.6523Y-2.1207
X3.6346Y-1.9416
X3.6346Y-1.9967
X3.6621Y-1.914
X3.6621Y-1.9691
X3.6621Y-2.0242
X3.6897Y-1.9416
X3.6897Y-1.9967
X3.7173Y-1.914
X3.7173Y-1.9691
X3.7173Y-2.0242
X3.7448Y-1.9416
X3.7448Y-1.9967
T3
X1.4013Y-1.727
X1.4229Y-1.6748
X1.4229Y-1.7792
X1.4751Y-1.6532
X1.4751Y-1.8008
X1.5273Y-1.6748
X1.5273Y-1.7792
X1.549Y-1.727
X1.6572Y-4.6601
X1.6788Y-4.6079
X1.6788Y-4.7123
X1.731Y-4.5862
X1.731Y-4.7339
X1.7832Y-4.6079
X1.7832Y-4.7123
X1.8049Y-4.6601
X2.3462Y-2.475
X2.3678Y-2.4228
X2.3678Y-2.5272
X2.42Y-2.4012
X2.42Y-2.5488
X2.4722Y-2.4228
X2.4722Y-2.5272
X2.4938Y-2.475
X3.5273Y-4.6601
X3.5489Y-4.6079
X3.5489Y-4.7123
X3.6011Y-4.5862
X3.6011Y-4.7339
X3.6533Y-4.6079
X3.6533Y-4.7123
X3.6749Y-4.6601
X3.9407Y-3.7545
X3.9623Y-3.7023
X3.9623Y-3.8067
X4.0145Y-3.6807
X4.0145Y-3.8284
X4.0667Y-3.7023
X4.0667Y-3.8067
X4.0883Y-3.7545
T6
X1.0421Y-2.6876
X1.1208Y-2.6876
X1.9279Y-1.9238
X1.9279Y-2.0026
X1.9279Y-2.0813
X3.0136Y-2.5065
X3.0136Y-2.5853
X3.6995Y-2.6325
X3.7245Y-4.0301
X3.7245Y-4.1089
X3.7783Y-2.6325
T7
X1.1246Y-1.9962
X1.223Y-1.9962
X1.8098Y-2.7988
X1.8098Y-2.8988
X2.0066Y-2.8189
X2.0066Y-2.9189
X3.1877Y-1.7467
X3.1877Y-1.8467
X3.1877Y-1.9467
X3.1877Y-2.0467
X3.1877Y-2.1467
X3.1877Y-2.2467
X3.1877Y-2.3467
X3.1877Y-2.4467
X3.1877Y-2.5467
X3.1877Y-2.6467
X3.1877Y-2.7467
X3.1877Y-2.8467
X3.1877Y-2.9467
X3.1877Y-3.0467
X3.1877Y-3.1467
X3.1877Y-3.2467
X3.1877Y-3.3467
X3.1877Y-3.4467
X3.1877Y-3.5467
X3.1877Y-3.6467
X3.1877Y-3.7467
X3.1877Y-3.8467
X3.8767Y-3.3103
X3.8767Y-3.4103
X4.0879Y-3.3103
X4.0879Y-3.4103
X4.2901Y-1.7435
X4.2901Y-1.8435
X4.2901Y-1.9435
X4.2901Y-2.0435
X4.2901Y-2.1435
X4.2901Y-2.2435
X4.2901Y-2.3435
X4.2901Y-2.4435
X4.2901Y-2.5435
X4.2901Y-2.6435
X4.2901Y-2.7435
X4.2901Y-2.8435
X4.2901Y-2.9435
X4.2901Y-3.0435
X4.2901Y-3.1435
X4.2901Y-3.2435
X4.2901Y-3.3435
X4.2901Y-3.4435
X4.2901Y-3.5435
X4.2901Y-3.6435
X4.2901Y-3.7435
X4.2901Y-3.8435
X4.2976Y-4.2599
X4.2976Y-4.3599
T8
X1.4751Y-1.727
X1.731Y-4.6601
X2.42Y-2.475
X3.6011Y-4.6601
X4.0145Y-3.7545
T9
X1.5635Y-2.9337
X1.5635Y-3.2171
T4
G00X1.3056Y-2.8097
M15
G01X1.349Y-2.8097
M16
G05
G00X1.3056Y-3.3412
M15
G01X1.349Y-3.3412
M16
G05
T5
G00X1.9436Y-1.8372
M15
G01X1.9121Y-1.8372
M16
G05
G00X1.9436Y-2.1679
M15
G01X1.9121Y-2.1679
M16
G05
M30
