%TF.GenerationSoftware,KiCad,Pcbnew,9.0.0*%
%TF.CreationDate,2025-05-21T17:06:58+02:00*%
%TF.ProjectId,DKWS_PCB,444b5753-5f50-4434-922e-6b696361645f,rev?*%
%TF.SameCoordinates,Original*%
%TF.FileFunction,Legend,Bot*%
%TF.FilePolarity,Positive*%
%FSLAX46Y46*%
G04 Gerber Fmt 4.6, Leading zero omitted, Abs format (unit mm)*
G04 Created by KiCad (PCBNEW 9.0.0) date 2025-05-21 17:06:58*
%MOMM*%
%LPD*%
G01*
G04 APERTURE LIST*
%ADD10R,1.700000X1.700000*%
%ADD11O,1.700000X1.700000*%
%ADD12C,0.800000*%
%ADD13C,5.000000*%
%ADD14R,1.350000X1.350000*%
%ADD15O,1.350000X1.350000*%
%ADD16R,1.308000X1.308000*%
%ADD17C,1.308000*%
%ADD18O,2.460000X1.230000*%
%ADD19C,1.508000*%
%ADD20R,1.508000X1.508000*%
%ADD21C,0.600000*%
%ADD22R,3.716000X3.716000*%
%ADD23C,3.716000*%
%ADD24O,2.400000X1.200000*%
G04 APERTURE END LIST*
%LPC*%
D10*
%TO.C,J1*%
X108968500Y-44285500D03*
D11*
X108968500Y-46825500D03*
X108968500Y-49365500D03*
X108968500Y-51905500D03*
X108968500Y-54445500D03*
X108968500Y-56985500D03*
X108968500Y-59525500D03*
X108968500Y-62065500D03*
X108968500Y-64605500D03*
X108968500Y-67145500D03*
X108968500Y-69685500D03*
X108968500Y-72225500D03*
X108968500Y-74765500D03*
X108968500Y-77305500D03*
X108968500Y-79845500D03*
X108968500Y-82385500D03*
X108968500Y-84925500D03*
X108968500Y-87465500D03*
X108968500Y-90005500D03*
X108968500Y-92545500D03*
X108968500Y-95085500D03*
X108968500Y-97625500D03*
%TD*%
D10*
%TO.C,JP3*%
X50968500Y-74140500D03*
D11*
X50968500Y-71600500D03*
%TD*%
D12*
%TO.C,H2*%
X59593500Y-62865500D03*
X60142675Y-61539675D03*
X60142675Y-64191325D03*
X61468500Y-60990500D03*
D13*
X61468500Y-62865500D03*
D12*
X61468500Y-64740500D03*
X62794325Y-61539675D03*
X62794325Y-64191325D03*
X63343500Y-62865500D03*
%TD*%
D14*
%TO.C,JP6*%
X93968500Y-66865500D03*
D15*
X95968500Y-66865500D03*
%TD*%
D16*
%TO.C,S1*%
X48968500Y-48865500D03*
D17*
X48968500Y-50865500D03*
X48968500Y-52865500D03*
D18*
X48968500Y-46665500D03*
X48968500Y-55065500D03*
%TD*%
D10*
%TO.C,JP9*%
X109158500Y-110740500D03*
D11*
X109158500Y-108200500D03*
%TD*%
D12*
%TO.C,H1*%
X35593500Y-43865500D03*
X36142675Y-42539675D03*
X36142675Y-45191325D03*
X37468500Y-41990500D03*
D13*
X37468500Y-43865500D03*
D12*
X37468500Y-45740500D03*
X38794325Y-42539675D03*
X38794325Y-45191325D03*
X39343500Y-43865500D03*
%TD*%
D10*
%TO.C,JP2*%
X98468500Y-86620500D03*
D11*
X98468500Y-84080500D03*
%TD*%
D10*
%TO.C,J2*%
X80968500Y-44365500D03*
D11*
X80968500Y-46905500D03*
X80968500Y-49445500D03*
X80968500Y-51985500D03*
X80968500Y-54525500D03*
X80968500Y-57065500D03*
X80968500Y-59605500D03*
X80968500Y-62145500D03*
X80968500Y-64685500D03*
X80968500Y-67225500D03*
X80968500Y-69765500D03*
X80968500Y-72305500D03*
X80968500Y-74845500D03*
X80968500Y-77385500D03*
X80968500Y-79925500D03*
X80968500Y-82465500D03*
X80968500Y-85005500D03*
X80968500Y-87545500D03*
X80968500Y-90085500D03*
X80968500Y-92625500D03*
X80968500Y-95165500D03*
X80968500Y-97705500D03*
%TD*%
D14*
%TO.C,JP10*%
X94603500Y-102365500D03*
D15*
X94603500Y-104365500D03*
%TD*%
D10*
%TO.C,JP1*%
X103833500Y-86620500D03*
D11*
X103833500Y-84080500D03*
%TD*%
D14*
%TO.C,JP8*%
X28468500Y-68265500D03*
D15*
X26468500Y-68265500D03*
%TD*%
D12*
%TO.C,H4*%
X42093500Y-118365500D03*
X42642675Y-117039675D03*
X42642675Y-119691325D03*
X43968500Y-116490500D03*
D13*
X43968500Y-118365500D03*
D12*
X43968500Y-120240500D03*
X45294325Y-117039675D03*
X45294325Y-119691325D03*
X45843500Y-118365500D03*
%TD*%
D14*
%TO.C,JP7*%
X76546000Y-63665500D03*
D15*
X76546000Y-65665500D03*
%TD*%
D10*
%TO.C,JP5*%
X45968500Y-71090500D03*
D11*
X45968500Y-73630500D03*
%TD*%
D19*
%TO.C,J6*%
X31063800Y-50703000D03*
D20*
X28563800Y-50703000D03*
%TD*%
D21*
%TO.C,U5*%
X67368500Y-53865500D03*
X66868500Y-53865500D03*
X66368500Y-53865500D03*
X67368500Y-53365500D03*
X66868500Y-53365500D03*
X66368500Y-53365500D03*
X67368500Y-52865500D03*
X66868500Y-52865500D03*
X66368500Y-52865500D03*
X67368500Y-52365500D03*
X66868500Y-52365500D03*
X66368500Y-52365500D03*
X67368500Y-51865500D03*
X66868500Y-51865500D03*
X66368500Y-51865500D03*
%TD*%
D12*
%TO.C,H5*%
X89593500Y-118365500D03*
X90142675Y-117039675D03*
X90142675Y-119691325D03*
X91468500Y-116490500D03*
D13*
X91468500Y-118365500D03*
D12*
X91468500Y-120240500D03*
X92794325Y-117039675D03*
X92794325Y-119691325D03*
X93343500Y-118365500D03*
%TD*%
D22*
%TO.C,J10*%
X39713500Y-74515500D03*
D23*
X39713500Y-81715500D03*
D24*
X33713500Y-71365500D03*
X33713500Y-84865500D03*
%TD*%
D12*
%TO.C,H3*%
X100093500Y-95365500D03*
X100642675Y-94039675D03*
X100642675Y-96691325D03*
X101968500Y-93490500D03*
D13*
X101968500Y-95365500D03*
D12*
X101968500Y-97240500D03*
X103294325Y-94039675D03*
X103294325Y-96691325D03*
X103843500Y-95365500D03*
%TD*%
%LPD*%
M02*
