%TF.GenerationSoftware,KiCad,Pcbnew,9.0.0*%
%TF.CreationDate,2025-05-21T17:06:58+02:00*%
%TF.ProjectId,DKWS_PCB,444b5753-5f50-4434-922e-6b696361645f,rev?*%
%TF.SameCoordinates,Original*%
%TF.FileFunction,Copper,L4,Bot*%
%TF.FilePolarity,Positive*%
%FSLAX46Y46*%
G04 Gerber Fmt 4.6, Leading zero omitted, Abs format (unit mm)*
G04 Created by KiCad (PCBNEW 9.0.0) date 2025-05-21 17:06:58*
%MOMM*%
%LPD*%
G01*
G04 APERTURE LIST*
%TA.AperFunction,HeatsinkPad*%
%ADD10C,0.600000*%
%TD*%
%TA.AperFunction,ComponentPad*%
%ADD11R,1.700000X1.700000*%
%TD*%
%TA.AperFunction,ComponentPad*%
%ADD12O,1.700000X1.700000*%
%TD*%
%TA.AperFunction,ComponentPad*%
%ADD13C,0.800000*%
%TD*%
%TA.AperFunction,ComponentPad*%
%ADD14C,5.000000*%
%TD*%
%TA.AperFunction,ComponentPad*%
%ADD15R,1.350000X1.350000*%
%TD*%
%TA.AperFunction,ComponentPad*%
%ADD16O,1.350000X1.350000*%
%TD*%
%TA.AperFunction,ComponentPad*%
%ADD17R,1.308000X1.308000*%
%TD*%
%TA.AperFunction,ComponentPad*%
%ADD18C,1.308000*%
%TD*%
%TA.AperFunction,ComponentPad*%
%ADD19O,2.460000X1.230000*%
%TD*%
%TA.AperFunction,HeatsinkPad*%
%ADD20R,1.900000X2.900000*%
%TD*%
%TA.AperFunction,ComponentPad*%
%ADD21C,1.508000*%
%TD*%
%TA.AperFunction,ComponentPad*%
%ADD22R,1.508000X1.508000*%
%TD*%
%TA.AperFunction,ComponentPad*%
%ADD23C,0.600000*%
%TD*%
%TA.AperFunction,ComponentPad*%
%ADD24R,3.716000X3.716000*%
%TD*%
%TA.AperFunction,ComponentPad*%
%ADD25C,3.716000*%
%TD*%
%TA.AperFunction,ComponentPad*%
%ADD26O,2.400000X1.200000*%
%TD*%
%TA.AperFunction,ViaPad*%
%ADD27C,0.600000*%
%TD*%
%TA.AperFunction,Conductor*%
%ADD28C,0.300000*%
%TD*%
%TA.AperFunction,Conductor*%
%ADD29C,1.000000*%
%TD*%
%TA.AperFunction,Conductor*%
%ADD30C,0.400000*%
%TD*%
%TA.AperFunction,Conductor*%
%ADD31C,0.500000*%
%TD*%
%TA.AperFunction,Conductor*%
%ADD32C,0.700000*%
%TD*%
%TA.AperFunction,Conductor*%
%ADD33C,0.600000*%
%TD*%
%TA.AperFunction,Conductor*%
%ADD34C,0.250000*%
%TD*%
%TA.AperFunction,Conductor*%
%ADD35C,0.750000*%
%TD*%
G04 APERTURE END LIST*
D10*
%TO.P,U1,41,GND*%
%TO.N,3.3V GND*%
X92318500Y-49315500D03*
X92318500Y-50715500D03*
X93018500Y-48615500D03*
X93018500Y-50015500D03*
X93018500Y-51415500D03*
X93718500Y-49315500D03*
X93718500Y-50715500D03*
X94418500Y-48615500D03*
X94418500Y-50015500D03*
X94418500Y-51415500D03*
X95118500Y-49315500D03*
X95118500Y-50715500D03*
%TD*%
D11*
%TO.P,J1,1,Pin_1*%
%TO.N,3.3V GND*%
X108968500Y-44285500D03*
D12*
%TO.P,J1,2,Pin_2*%
%TO.N,Net-(J1-Pin_2)*%
X108968500Y-46825500D03*
%TO.P,J1,3,Pin_3*%
%TO.N,Net-(J1-Pin_3)*%
X108968500Y-49365500D03*
%TO.P,J1,4,Pin_4*%
%TO.N,Voltage Measure*%
X108968500Y-51905500D03*
%TO.P,J1,5,Pin_5*%
%TO.N,Net-(J1-Pin_5)*%
X108968500Y-54445500D03*
%TO.P,J1,6,Pin_6*%
%TO.N,Net-(J1-Pin_6)*%
X108968500Y-56985500D03*
%TO.P,J1,7,Pin_7*%
%TO.N,Net-(J1-Pin_7)*%
X108968500Y-59525500D03*
%TO.P,J1,8,Pin_8*%
%TO.N,Net-(J1-Pin_8)*%
X108968500Y-62065500D03*
%TO.P,J1,9,Pin_9*%
%TO.N,Net-(J1-Pin_9)*%
X108968500Y-64605500D03*
%TO.P,J1,10,Pin_10*%
%TO.N,Net-(J1-Pin_10)*%
X108968500Y-67145500D03*
%TO.P,J1,11,Pin_11*%
%TO.N,Net-(J1-Pin_11)*%
X108968500Y-69685500D03*
%TO.P,J1,12,Pin_12*%
%TO.N,Net-(J1-Pin_12)*%
X108968500Y-72225500D03*
%TO.P,J1,13,Pin_13*%
%TO.N,Net-(J1-Pin_13)*%
X108968500Y-74765500D03*
%TO.P,J1,14,Pin_14*%
%TO.N,Net-(J1-Pin_14)*%
X108968500Y-77305500D03*
%TO.P,J1,15,Pin_15*%
%TO.N,Net-(J1-Pin_15)*%
X108968500Y-79845500D03*
%TO.P,J1,16,Pin_16*%
%TO.N,Net-(J1-Pin_16)*%
X108968500Y-82385500D03*
%TO.P,J1,17,Pin_17*%
%TO.N,Net-(J1-Pin_17)*%
X108968500Y-84925500D03*
%TO.P,J1,18,Pin_18*%
%TO.N,Net-(J1-Pin_18)*%
X108968500Y-87465500D03*
%TO.P,J1,19,Pin_19*%
%TO.N,Net-(J1-Pin_19)*%
X108968500Y-90005500D03*
%TO.P,J1,20,Pin_20*%
%TO.N,Net-(J1-Pin_20)*%
X108968500Y-92545500D03*
%TO.P,J1,21,Pin_21*%
%TO.N,3.3V GND*%
X108968500Y-95085500D03*
%TO.P,J1,22,Pin_22*%
X108968500Y-97625500D03*
%TD*%
D11*
%TO.P,JP3,1,A*%
%TO.N,Net-(JP3-A)*%
X50968500Y-74140500D03*
D12*
%TO.P,JP3,2,B*%
%TO.N,Net-(JP3-B)*%
X50968500Y-71600500D03*
%TD*%
D13*
%TO.P,H2,1*%
%TO.N,3.3V GND*%
X59593500Y-62865500D03*
X60142675Y-61539675D03*
X60142675Y-64191325D03*
X61468500Y-60990500D03*
D14*
X61468500Y-62865500D03*
D13*
X61468500Y-64740500D03*
X62794325Y-61539675D03*
X62794325Y-64191325D03*
X63343500Y-62865500D03*
%TD*%
D15*
%TO.P,JP6,1,A*%
%TO.N,3.3V OUT*%
X93968500Y-66865500D03*
D16*
%TO.P,JP6,2,B*%
%TO.N,Net-(JP6-B)*%
X95968500Y-66865500D03*
%TD*%
D17*
%TO.P,S1,1*%
%TO.N,3.3V GND*%
X48968500Y-48865500D03*
D18*
%TO.P,S1,2*%
%TO.N,Charger GND*%
X48968500Y-50865500D03*
%TO.P,S1,3*%
%TO.N,unconnected-(S1-Pad3)*%
X48968500Y-52865500D03*
D19*
%TO.P,S1,S1,SHIELD*%
%TO.N,3.3V GND*%
X48968500Y-46665500D03*
%TO.P,S1,S2,SHIELD*%
X48968500Y-55065500D03*
%TD*%
D11*
%TO.P,JP9,1,A*%
%TO.N,5V OUT*%
X109158500Y-110740500D03*
D12*
%TO.P,JP9,2,B*%
%TO.N,Net-(D6-A)*%
X109158500Y-108200500D03*
%TD*%
D13*
%TO.P,H1,1*%
%TO.N,3.3V GND*%
X35593500Y-43865500D03*
X36142675Y-42539675D03*
X36142675Y-45191325D03*
X37468500Y-41990500D03*
D14*
X37468500Y-43865500D03*
D13*
X37468500Y-45740500D03*
X38794325Y-42539675D03*
X38794325Y-45191325D03*
X39343500Y-43865500D03*
%TD*%
D11*
%TO.P,JP2,1,A*%
%TO.N,Main_TXD*%
X98468500Y-86620500D03*
D12*
%TO.P,JP2,2,B*%
%TO.N,Net-(J1-Pin_3)*%
X98468500Y-84080500D03*
%TD*%
D11*
%TO.P,J2,1,Pin_1*%
%TO.N,3.3V OUT*%
X80968500Y-44365500D03*
D12*
%TO.P,J2,2,Pin_2*%
X80968500Y-46905500D03*
%TO.P,J2,3,Pin_3*%
%TO.N,Net-(J2-Pin_3)*%
X80968500Y-49445500D03*
%TO.P,J2,4,Pin_4*%
%TO.N,Temperature*%
X80968500Y-51985500D03*
%TO.P,J2,5,Pin_5*%
%TO.N,Sensors PWR*%
X80968500Y-54525500D03*
%TO.P,J2,6,Pin_6*%
%TO.N,Net-(J2-Pin_6)*%
X80968500Y-57065500D03*
%TO.P,J2,7,Pin_7*%
%TO.N,Net-(J2-Pin_7)*%
X80968500Y-59605500D03*
%TO.P,J2,8,Pin_8*%
%TO.N,RS232_TX*%
X80968500Y-62145500D03*
%TO.P,J2,9,Pin_9*%
%TO.N,RS232_RX*%
X80968500Y-64685500D03*
%TO.P,J2,10,Pin_10*%
%TO.N,SDS_RX*%
X80968500Y-67225500D03*
%TO.P,J2,11,Pin_11*%
%TO.N,SDS_TX*%
X80968500Y-69765500D03*
%TO.P,J2,12,Pin_12*%
%TO.N,VEML_SDA*%
X80968500Y-72305500D03*
%TO.P,J2,13,Pin_13*%
%TO.N,Net-(J2-Pin_13)*%
X80968500Y-74845500D03*
%TO.P,J2,14,Pin_14*%
%TO.N,Net-(J2-Pin_14)*%
X80968500Y-77385500D03*
%TO.P,J2,15,Pin_15*%
%TO.N,VEML_SCL*%
X80968500Y-79925500D03*
%TO.P,J2,16,Pin_16*%
%TO.N,ESP-BC RST*%
X80968500Y-82465500D03*
%TO.P,J2,17,Pin_17*%
%TO.N,PSM_EINT*%
X80968500Y-85005500D03*
%TO.P,J2,18,Pin_18*%
%TO.N,Net-(J2-Pin_18)*%
X80968500Y-87545500D03*
%TO.P,J2,19,Pin_19*%
%TO.N,Net-(J2-Pin_19)*%
X80968500Y-90085500D03*
%TO.P,J2,20,Pin_20*%
%TO.N,Net-(J2-Pin_20)*%
X80968500Y-92625500D03*
%TO.P,J2,21,Pin_21*%
%TO.N,5V OUT*%
X80968500Y-95165500D03*
%TO.P,J2,22,Pin_22*%
%TO.N,3.3V GND*%
X80968500Y-97705500D03*
%TD*%
D15*
%TO.P,JP10,1,A*%
%TO.N,SENS GND*%
X94603500Y-102365500D03*
D16*
%TO.P,JP10,2,B*%
%TO.N,Net-(JP10-B)*%
X94603500Y-104365500D03*
%TD*%
D11*
%TO.P,JP1,1,A*%
%TO.N,Main_RXD*%
X103833500Y-86620500D03*
D12*
%TO.P,JP1,2,B*%
%TO.N,Net-(J1-Pin_2)*%
X103833500Y-84080500D03*
%TD*%
D10*
%TO.P,U3,9,EPAD*%
%TO.N,Charger GND*%
X32468500Y-64565500D03*
X32468500Y-63365500D03*
X32468500Y-62165500D03*
D20*
X31768500Y-63365500D03*
D10*
X31068500Y-64565500D03*
X31068500Y-63365500D03*
X31068500Y-62165500D03*
%TD*%
D15*
%TO.P,JP8,1,A*%
%TO.N,Net-(J10-+)*%
X28468500Y-68265500D03*
D16*
%TO.P,JP8,2,B*%
%TO.N,Net-(D1-A)*%
X26468500Y-68265500D03*
%TD*%
D13*
%TO.P,H4,1*%
%TO.N,N/C*%
X42093500Y-118365500D03*
X42642675Y-117039675D03*
X42642675Y-119691325D03*
X43968500Y-116490500D03*
D14*
X43968500Y-118365500D03*
D13*
X43968500Y-120240500D03*
X45294325Y-117039675D03*
X45294325Y-119691325D03*
X45843500Y-118365500D03*
%TD*%
D15*
%TO.P,JP7,1,A*%
%TO.N,3.3V OUT*%
X76546000Y-63665500D03*
D16*
%TO.P,JP7,2,B*%
%TO.N,Net-(JP7-B)*%
X76546000Y-65665500D03*
%TD*%
D11*
%TO.P,JP5,1,A*%
%TO.N,3.3V OUT*%
X45968500Y-71090500D03*
D12*
%TO.P,JP5,2,B*%
%TO.N,Net-(JP5-B)*%
X45968500Y-73630500D03*
%TD*%
D21*
%TO.P,J6,1,1*%
%TO.N,Battery GND*%
X31063800Y-50703000D03*
D22*
%TO.P,J6,2,2*%
%TO.N,Charger OUT*%
X28563800Y-50703000D03*
%TD*%
D23*
%TO.P,U5,16,Pad*%
%TO.N,3.3V GND*%
X67368500Y-53865500D03*
%TO.P,U5,17,Pad*%
X66868500Y-53865500D03*
%TO.P,U5,18,Pad*%
X66368500Y-53865500D03*
%TO.P,U5,19,Pad*%
X67368500Y-53365500D03*
%TO.P,U5,20,Pad*%
X66868500Y-53365500D03*
%TO.P,U5,21,Pad*%
X66368500Y-53365500D03*
%TO.P,U5,22,Pad*%
X67368500Y-52865500D03*
%TO.P,U5,23,Pad*%
X66868500Y-52865500D03*
%TO.P,U5,24,Pad*%
X66368500Y-52865500D03*
%TO.P,U5,25,Pad*%
X67368500Y-52365500D03*
%TO.P,U5,26,Pad*%
X66868500Y-52365500D03*
%TO.P,U5,27,Pad*%
X66368500Y-52365500D03*
%TO.P,U5,28,Pad*%
X67368500Y-51865500D03*
%TO.P,U5,29,Pad*%
X66868500Y-51865500D03*
%TO.P,U5,30,Pad*%
X66368500Y-51865500D03*
%TD*%
D13*
%TO.P,H5,1*%
%TO.N,N/C*%
X89593500Y-118365500D03*
X90142675Y-117039675D03*
X90142675Y-119691325D03*
X91468500Y-116490500D03*
D14*
X91468500Y-118365500D03*
D13*
X91468500Y-120240500D03*
X92794325Y-117039675D03*
X92794325Y-119691325D03*
X93343500Y-118365500D03*
%TD*%
D24*
%TO.P,J10,1,+*%
%TO.N,Net-(J10-+)*%
X39713500Y-74515500D03*
D25*
%TO.P,J10,2,-*%
%TO.N,Charger GND*%
X39713500Y-81715500D03*
D26*
%TO.P,J10,S1*%
%TO.N,N/C*%
X33713500Y-71365500D03*
%TO.P,J10,S2*%
X33713500Y-84865500D03*
%TD*%
D13*
%TO.P,H3,1*%
%TO.N,3.3V GND*%
X100093500Y-95365500D03*
X100642675Y-94039675D03*
X100642675Y-96691325D03*
X101968500Y-93490500D03*
D14*
X101968500Y-95365500D03*
D13*
X101968500Y-97240500D03*
X103294325Y-94039675D03*
X103294325Y-96691325D03*
X103843500Y-95365500D03*
%TD*%
D27*
%TO.N,Net-(J10-+)*%
X35500000Y-61460500D03*
%TO.N,3.3V GND*%
X51146000Y-62440500D03*
X50121000Y-61615500D03*
X46468500Y-65940500D03*
X24500000Y-52000000D03*
X63340000Y-48380000D03*
X48000000Y-105000000D03*
X51691000Y-63165500D03*
X64968500Y-65865500D03*
X92468500Y-44865500D03*
X95968500Y-73365500D03*
X97968500Y-48365500D03*
X96000000Y-78500000D03*
X43000000Y-93500000D03*
X88950000Y-83370000D03*
X64968500Y-63865500D03*
X67968500Y-71365500D03*
X48968500Y-86365500D03*
X55998500Y-83385500D03*
X57778500Y-63955500D03*
X56588500Y-66665500D03*
X100468500Y-50865500D03*
X75000000Y-44000000D03*
X58758500Y-76865500D03*
X73360000Y-56560000D03*
X95468500Y-44865500D03*
X102468500Y-42085500D03*
X65968500Y-63365500D03*
X72020000Y-93730000D03*
X61191000Y-75665500D03*
X78500000Y-65000000D03*
X60000000Y-57000000D03*
X101968500Y-54865500D03*
X75710000Y-48380000D03*
X52968500Y-100365500D03*
X60000000Y-44000000D03*
X52528500Y-62275500D03*
X53178500Y-65755500D03*
X59500000Y-92510000D03*
X87918500Y-42185500D03*
X89128500Y-41865500D03*
X49191000Y-67115500D03*
X61308500Y-77515500D03*
X62590000Y-48380000D03*
X75159500Y-96110000D03*
X105758500Y-43325500D03*
X92500000Y-75550000D03*
X60370000Y-48380000D03*
X95968500Y-53365500D03*
X70968500Y-62555500D03*
X49468500Y-89365500D03*
X97968500Y-44865500D03*
X57658500Y-77105500D03*
X47146000Y-66440500D03*
X49968500Y-75865500D03*
X49778500Y-93195500D03*
X56968500Y-84865500D03*
X56868500Y-83325500D03*
X64968500Y-64865500D03*
X57798500Y-75945500D03*
X98968500Y-57365500D03*
X58468500Y-100365500D03*
X55908500Y-62235500D03*
X50968500Y-99365500D03*
X77688500Y-77415500D03*
X63519500Y-87540000D03*
X97968500Y-46365500D03*
X103078500Y-65655500D03*
X66138500Y-49865500D03*
X95968500Y-63865500D03*
X67265167Y-49225500D03*
X56968500Y-100365500D03*
X78368500Y-82765500D03*
X67568500Y-55575500D03*
X71768500Y-63145500D03*
X105468500Y-42365500D03*
X57468500Y-70365500D03*
X71150000Y-48380000D03*
X94268500Y-57665500D03*
X72540000Y-69690000D03*
X92458500Y-73335500D03*
X49728500Y-91465500D03*
X49468500Y-88365500D03*
X78191000Y-76665500D03*
X61191000Y-74165500D03*
X84328500Y-41915500D03*
X90468500Y-48365500D03*
X46468500Y-63940500D03*
X43010000Y-68630000D03*
X88468500Y-46365500D03*
X57691000Y-72665500D03*
X58468500Y-75365500D03*
X60119500Y-94840000D03*
X66551833Y-49225500D03*
X90468500Y-46365500D03*
X98968500Y-52365500D03*
X33050000Y-50520000D03*
X89038500Y-54525500D03*
X61280000Y-48380000D03*
X66863500Y-49865500D03*
X95468500Y-46365500D03*
X71708500Y-62215500D03*
X50218500Y-67115500D03*
X72240000Y-89100000D03*
X55118500Y-93455500D03*
X96268500Y-75255500D03*
X85518500Y-75445500D03*
X34520000Y-53300000D03*
X100468500Y-46365500D03*
X53691000Y-63165500D03*
X96468500Y-50365500D03*
X67588500Y-49865500D03*
X65808500Y-70485500D03*
X66691000Y-70165500D03*
X54000000Y-57500000D03*
X89468500Y-53365500D03*
X62089500Y-88400000D03*
X60898500Y-76545500D03*
X77500000Y-88000000D03*
X46468500Y-64940500D03*
X40850000Y-51630000D03*
X49121000Y-61615500D03*
X38700000Y-53510000D03*
X66148500Y-55575500D03*
X64290000Y-76340000D03*
X54968500Y-70865500D03*
X56818500Y-63465500D03*
X54691000Y-63165500D03*
X67950000Y-49220000D03*
X66468500Y-73865500D03*
X106500000Y-81000000D03*
X88358500Y-49825500D03*
X59380000Y-88610000D03*
X102088500Y-56725500D03*
X56468500Y-67865500D03*
X71520000Y-89100000D03*
X53968500Y-99865500D03*
X51468500Y-100365500D03*
X92458500Y-71535500D03*
X88468500Y-44865500D03*
X55158500Y-91545500D03*
X58908500Y-65915500D03*
X27000000Y-44500000D03*
X47146000Y-65440500D03*
X59468500Y-79365500D03*
X24500000Y-42000000D03*
X103168500Y-74195500D03*
X40870000Y-52400000D03*
X67080000Y-88500000D03*
X95968500Y-74365500D03*
X55968500Y-70865500D03*
X58468500Y-74365500D03*
X102498500Y-63925500D03*
X103168500Y-70555500D03*
X58468500Y-72365500D03*
X66508500Y-56255500D03*
X76000000Y-107000000D03*
X46430000Y-76420000D03*
X56108500Y-65765500D03*
X85888500Y-74655500D03*
X62409500Y-92440000D03*
X56468500Y-69365500D03*
X84468500Y-69865500D03*
X67278500Y-56255500D03*
X78758500Y-82045500D03*
X92468500Y-46365500D03*
X58968500Y-73365500D03*
X47146000Y-64440500D03*
X90468500Y-44865500D03*
X64409500Y-101610000D03*
X65838500Y-49225500D03*
X46468500Y-62940500D03*
X73370000Y-48380000D03*
X48468500Y-92365500D03*
X59468500Y-99865500D03*
X51146000Y-66440500D03*
X54148500Y-65705500D03*
X50468500Y-93865500D03*
X48191000Y-67115500D03*
X40520000Y-53000000D03*
X85178500Y-42205500D03*
X39270000Y-53030000D03*
X47146000Y-62440500D03*
X33000000Y-44500000D03*
X47146000Y-63440500D03*
X24500000Y-49500000D03*
X54000000Y-44000000D03*
X50968500Y-75865500D03*
X49418500Y-92235500D03*
X38020000Y-53040000D03*
X83968500Y-68365500D03*
X62319500Y-87490000D03*
X66968500Y-71365500D03*
X100468500Y-44865500D03*
X92458500Y-72405500D03*
X70130000Y-86800000D03*
X39910000Y-53520000D03*
X72570000Y-48380000D03*
X58691000Y-70165500D03*
X59968500Y-70365500D03*
X91968500Y-57865500D03*
X88990000Y-81080000D03*
X67638500Y-70545500D03*
X58468500Y-77865500D03*
X45000000Y-44000000D03*
X70400000Y-48380000D03*
X93778500Y-52995500D03*
X49468500Y-87365500D03*
X59968500Y-72865500D03*
X95548500Y-68915500D03*
X45000000Y-57500000D03*
X48121000Y-61615500D03*
X55228500Y-65755500D03*
X49548500Y-90645500D03*
X101968500Y-48865500D03*
X57691000Y-71665500D03*
X56168500Y-84505500D03*
X49500000Y-57500000D03*
X72720000Y-57340000D03*
X74820000Y-48380000D03*
X102528500Y-64815500D03*
X71750000Y-57480000D03*
X60968500Y-78365500D03*
X52198500Y-65675500D03*
X99258500Y-54125500D03*
X67840000Y-88200000D03*
X84848500Y-74965500D03*
X78388500Y-81315500D03*
X45990000Y-77290000D03*
X68409500Y-101610000D03*
X56468500Y-99365500D03*
X66858500Y-55575500D03*
X68148500Y-72665500D03*
X57000000Y-105000000D03*
X101968500Y-52365500D03*
X58578500Y-65015500D03*
X83948500Y-69235500D03*
X54648500Y-92585500D03*
X78500000Y-58000000D03*
X43840000Y-88830000D03*
%TO.N,Net-(J1-Pin_5)*%
X106738400Y-44835500D03*
%TO.N,Net-(J2-Pin_7)*%
X85233000Y-50124300D03*
%TO.N,Net-(J1-Pin_10)*%
X105388500Y-53735500D03*
%TO.N,Net-(J2-Pin_20)*%
X95758500Y-57715500D03*
%TO.N,Voltage Measure*%
X40468500Y-50365500D03*
X102733500Y-43586000D03*
%TO.N,SENS GND*%
X42760000Y-112720000D03*
X40018500Y-100895500D03*
X83858500Y-100535500D03*
X51488500Y-118265500D03*
X50988500Y-115475500D03*
X27638500Y-117535500D03*
X55318500Y-119115500D03*
X24500000Y-120000000D03*
X94968500Y-98365500D03*
X105218500Y-110155500D03*
X39000000Y-103500000D03*
X100968500Y-118365500D03*
X78538500Y-115365500D03*
X29628500Y-115258833D03*
X92968500Y-98365500D03*
X33500000Y-103500000D03*
X77300000Y-113380000D03*
X50368500Y-118235500D03*
X104238500Y-109765500D03*
X49768500Y-119175500D03*
X56710000Y-113650000D03*
X105048500Y-109265500D03*
X33528500Y-99945500D03*
X100648500Y-102235500D03*
X101360000Y-115290000D03*
X104468500Y-119365500D03*
X34958500Y-117315500D03*
X98468500Y-119365500D03*
X65328500Y-117775500D03*
X105360000Y-115100000D03*
X36028500Y-116755500D03*
X39138500Y-100815500D03*
X101968500Y-118365500D03*
X27160000Y-100365500D03*
X86778500Y-119545500D03*
X85138500Y-99175500D03*
X25878500Y-117535500D03*
X29618500Y-99107167D03*
X100370000Y-115290000D03*
X109500000Y-119500000D03*
X38418500Y-117255500D03*
X34438500Y-99945500D03*
X85248500Y-100645500D03*
X81000000Y-107000000D03*
X24500000Y-106000000D03*
X25268500Y-116955500D03*
X84648500Y-100055500D03*
X29628500Y-114395500D03*
X109500000Y-101000000D03*
X39000000Y-120000000D03*
X70448500Y-113955500D03*
X99718500Y-102195500D03*
X86748500Y-120465500D03*
X35078500Y-99305500D03*
X101408500Y-102835500D03*
X84968500Y-98365500D03*
X81000000Y-102000000D03*
X93468500Y-99365500D03*
X106390000Y-115120000D03*
X59800000Y-115480000D03*
X76928500Y-115585500D03*
X39368500Y-117385500D03*
X59840000Y-118030000D03*
X90380000Y-113820000D03*
X86728500Y-118575500D03*
X40398500Y-117315500D03*
X98468500Y-120365500D03*
X29628500Y-116122167D03*
X39000000Y-89000000D03*
X53968500Y-117865500D03*
X26758500Y-117535500D03*
X38108500Y-100555500D03*
X49078500Y-118485500D03*
X26228500Y-100345500D03*
X98118500Y-118545500D03*
X99968500Y-118365500D03*
X69810000Y-115570000D03*
X52968500Y-118865500D03*
X98160000Y-109120000D03*
X104788500Y-118445500D03*
X25000000Y-89500000D03*
X93968500Y-98365500D03*
X28090000Y-100365500D03*
X96000000Y-109000000D03*
X77508500Y-116275500D03*
X104468500Y-120365500D03*
X29618500Y-98243833D03*
X38048500Y-99635500D03*
X37808500Y-116545500D03*
X39410000Y-109010000D03*
X94468500Y-99365500D03*
X35118500Y-116335500D03*
X29618500Y-97380500D03*
%TO.N,12V OUT*%
X98968500Y-115365500D03*
X41468500Y-114365500D03*
%TO.N,Net-(J2-Pin_3)*%
X84968500Y-44865500D03*
%TO.N,Net-(J2-Pin_13)*%
X85324800Y-60221800D03*
%TO.N,Net-(J2-Pin_14)*%
X85536100Y-61082200D03*
%TO.N,Net-(J1-Pin_20)*%
X88468500Y-58365500D03*
%TO.N,Net-(J1-Pin_18)*%
X98468500Y-61365500D03*
%TO.N,Net-(J1-Pin_16)*%
X100468500Y-58365500D03*
%TO.N,Net-(J1-Pin_19)*%
X93968500Y-55365500D03*
%TO.N,Net-(J2-Pin_19)*%
X95468500Y-58565500D03*
%TO.N,Net-(J1-Pin_3)*%
X101799500Y-47375500D03*
%TO.N,Net-(J1-Pin_2)*%
X106468500Y-46105500D03*
%TO.N,Net-(J2-Pin_18)*%
X94206300Y-61865500D03*
%TO.N,Net-(J1-Pin_15)*%
X102468500Y-61865500D03*
%TO.N,Net-(J1-Pin_9)*%
X105478500Y-52435500D03*
%TO.N,VEML_SDA*%
X82218500Y-110835500D03*
X62468500Y-112865500D03*
X85246400Y-56233000D03*
%TO.N,Net-(J1-Pin_11)*%
X105718500Y-55115500D03*
%TO.N,Net-(J2-Pin_6)*%
X85248400Y-49085600D03*
%TO.N,Net-(J1-Pin_6)*%
X105468500Y-48865500D03*
%TO.N,VEML_SCL*%
X86128500Y-76365500D03*
X60968500Y-113865500D03*
X80968500Y-112365500D03*
X89817500Y-58440500D03*
%TO.N,Net-(J1-Pin_17)*%
X100468500Y-61746413D03*
%TO.N,RS232_TX*%
X88498500Y-51185500D03*
X100103500Y-109638000D03*
X98968500Y-58365500D03*
%TO.N,SDS_RX*%
X71190000Y-115610000D03*
X85404400Y-53688100D03*
%TO.N,Net-(U4-CS)*%
X30267500Y-55890500D03*
X32629500Y-58365500D03*
%TO.N,Net-(D4-A)*%
X34398500Y-110345500D03*
X31468500Y-117225500D03*
%TO.N,Net-(D5-A)*%
X31378500Y-100095500D03*
X34388500Y-93365500D03*
%TO.N,RS232_RX*%
X101603500Y-110138000D03*
X85199100Y-52284400D03*
%TO.N,SDS_TX*%
X85185500Y-54964600D03*
X72468500Y-114365500D03*
%TO.N,PSM_EINT*%
X92968500Y-58865500D03*
X74018500Y-62505500D03*
%TO.N,Temperature*%
X52968500Y-113365500D03*
X80968500Y-118865500D03*
X85000500Y-46143400D03*
%TO.N,Net-(U5-EN)*%
X68858500Y-54945500D03*
X64618500Y-53865500D03*
%TO.N,Sensors PWR*%
X85185500Y-47402900D03*
X95138500Y-80625500D03*
X87968500Y-47865500D03*
%TO.N,Main_RXD*%
X78468500Y-75365500D03*
X71168500Y-76065500D03*
%TO.N,Main_TXD*%
X71268500Y-77165500D03*
X78098500Y-79365500D03*
%TO.N,BC660K Reset*%
X57541000Y-89845500D03*
X75468500Y-79365500D03*
%TO.N,BC660K Boot*%
X53760000Y-90260000D03*
X64560000Y-81770000D03*
%TO.N,ESP-BC RST*%
X91968500Y-61365500D03*
%TO.N,Charger GND*%
X36020000Y-55080000D03*
X23410000Y-55300000D03*
X36140000Y-59480000D03*
X38640000Y-56770000D03*
X36350000Y-58830000D03*
X24740000Y-84160000D03*
X30468500Y-60365500D03*
X38730000Y-61000000D03*
X35700000Y-55730000D03*
X36500000Y-69000000D03*
X38720000Y-61850000D03*
X31000000Y-69000000D03*
X37800000Y-63020000D03*
X29000000Y-81500000D03*
X38710000Y-64140000D03*
X35450000Y-59510000D03*
X38630000Y-64930000D03*
X38610000Y-63360000D03*
X31060000Y-59990000D03*
X32710000Y-65410000D03*
X26500000Y-72000000D03*
X39000000Y-56000000D03*
X38210000Y-62420000D03*
X35720000Y-65350000D03*
X36610000Y-62680000D03*
X31000000Y-72000000D03*
X30640000Y-59400000D03*
X35840000Y-57340000D03*
X35470000Y-66010000D03*
X36500000Y-72000000D03*
X35900000Y-62690000D03*
X24500000Y-72000000D03*
X27000000Y-78000000D03*
X35500000Y-81500000D03*
X38180000Y-56070000D03*
X35350000Y-54780000D03*
X37500000Y-65865500D03*
X38570000Y-55240000D03*
%TO.N,Net-(J12-CLK)*%
X68910500Y-92340000D03*
X69031000Y-89744500D03*
%TO.N,Net-(J12-VCC)*%
X74689500Y-87160000D03*
X63830500Y-92490000D03*
X67599500Y-92260000D03*
%TD*%
D28*
%TO.N,Net-(J1-Pin_5)*%
X107528500Y-53035500D02*
X108938500Y-54445500D01*
X108938500Y-54445500D02*
X108968500Y-54445500D01*
X107528500Y-45625500D02*
X107528500Y-53035500D01*
X106738400Y-44835500D02*
X106888400Y-44985500D01*
X106888500Y-44985500D02*
X107528500Y-45625500D01*
D29*
%TO.N,Net-(J2-Pin_20)*%
X80968500Y-92625500D02*
X80968500Y-92520582D01*
D30*
X95758500Y-57715500D02*
X95778500Y-57715500D01*
X92598500Y-68495500D02*
X94468500Y-70365500D01*
X92598500Y-65967248D02*
X92598500Y-68495500D01*
X94468500Y-70365500D02*
X94468500Y-79125500D01*
X96508500Y-62061500D02*
X92602752Y-65967248D01*
X95778500Y-57715500D02*
X96508500Y-58445500D01*
X92602752Y-65967248D02*
X92598500Y-65967248D01*
X94468500Y-79125500D02*
X80968500Y-92625500D01*
X96508500Y-58445500D02*
X96508500Y-62061500D01*
%TO.N,Net-(J2-Pin_13)*%
X82558500Y-74845500D02*
X86468500Y-70935500D01*
D31*
X85331100Y-60215500D02*
X85324800Y-60221800D01*
D30*
X80968500Y-74845500D02*
X82558500Y-74845500D01*
X86468500Y-60775500D02*
X85908500Y-60215500D01*
X86468500Y-70935500D02*
X86468500Y-60775500D01*
X85908500Y-60215500D02*
X85331100Y-60215500D01*
D28*
%TO.N,Net-(J2-Pin_14)*%
X79618500Y-74285500D02*
X80318500Y-73585500D01*
X82327846Y-73585500D02*
X85536100Y-70377246D01*
X80318500Y-73585500D02*
X82327846Y-73585500D01*
X85536100Y-70377246D02*
X85536100Y-61082200D01*
X80968500Y-77385500D02*
X79618500Y-76035500D01*
X79618500Y-76035500D02*
X79618500Y-74285500D01*
D32*
%TO.N,5V OUT*%
X90318500Y-102215500D02*
X90318500Y-111215500D01*
X109198500Y-111822500D02*
X109198500Y-110730000D01*
X90318500Y-111215500D02*
X92968500Y-113865500D01*
X92968500Y-113865500D02*
X107155500Y-113865500D01*
X83268500Y-95165500D02*
X90318500Y-102215500D01*
X107155500Y-113865500D02*
X109198500Y-111822500D01*
X80968500Y-95165500D02*
X83268500Y-95165500D01*
%TO.N,Net-(J1-Pin_19)*%
X101667500Y-87994500D02*
X103758500Y-90085500D01*
X103758500Y-90085500D02*
X109468500Y-90085500D01*
X101667500Y-58197286D02*
X101667500Y-87994500D01*
X98835714Y-55365500D02*
X101667500Y-58197286D01*
X93968500Y-55365500D02*
X98835714Y-55365500D01*
D30*
%TO.N,Net-(J2-Pin_19)*%
X93468500Y-70865500D02*
X93468500Y-77755500D01*
X95468500Y-61865500D02*
X91468500Y-65865500D01*
X93468500Y-77755500D02*
X81138500Y-90085500D01*
X81138500Y-90085500D02*
X80968500Y-90085500D01*
X91468500Y-65865500D02*
X91468500Y-68865500D01*
X95468500Y-58565500D02*
X95468500Y-61865500D01*
X91468500Y-68865500D02*
X93468500Y-70865500D01*
D32*
%TO.N,Net-(J1-Pin_2)*%
X103968500Y-83945500D02*
X103833500Y-84080500D01*
X106468500Y-46105500D02*
X103968500Y-48605500D01*
X103968500Y-48605500D02*
X103968500Y-83945500D01*
D30*
%TO.N,Net-(J2-Pin_18)*%
X94206300Y-61865500D02*
X90468500Y-65603300D01*
X90468500Y-78045500D02*
X80968500Y-87545500D01*
X90468500Y-65603300D02*
X90468500Y-78045500D01*
D28*
%TO.N,VEML_SDA*%
X85246400Y-56233000D02*
X84438500Y-57040900D01*
X84438500Y-64395500D02*
X83119500Y-65714500D01*
X84438500Y-57040900D02*
X84438500Y-64395500D01*
X83119500Y-65714500D02*
X83119500Y-70154500D01*
X83119500Y-70154500D02*
X80968500Y-72305500D01*
%TO.N,Net-(J1-Pin_11)*%
X108968500Y-69685500D02*
X108938500Y-69685500D01*
X106928500Y-67675500D02*
X106928500Y-56325500D01*
X108938500Y-69685500D02*
X106928500Y-67675500D01*
X106928500Y-56325500D02*
X105718500Y-55115500D01*
%TO.N,Net-(J1-Pin_6)*%
X106024000Y-48851000D02*
X106458500Y-49285500D01*
D32*
X105468500Y-48865500D02*
X105483000Y-48851000D01*
D28*
X108908500Y-56985500D02*
X108968500Y-56985500D01*
X106458500Y-49285500D02*
X106458500Y-54535500D01*
X106458500Y-54535500D02*
X108908500Y-56985500D01*
X105483000Y-48851000D02*
X106024000Y-48851000D01*
D30*
%TO.N,VEML_SCL*%
X84528500Y-76365500D02*
X80968500Y-79925500D01*
X86968500Y-76365500D02*
X87468500Y-75865500D01*
X87468500Y-75865500D02*
X87468500Y-60789500D01*
X86128500Y-76365500D02*
X86968500Y-76365500D01*
X86128500Y-76365500D02*
X84528500Y-76365500D01*
X87468500Y-60789500D02*
X89817500Y-58440500D01*
D33*
%TO.N,RS232_TX*%
X99468500Y-62255500D02*
X99468500Y-58865500D01*
D28*
X82398500Y-60715500D02*
X80968500Y-62145500D01*
D33*
X103468500Y-101865500D02*
X105468500Y-99865500D01*
X105468500Y-99865500D02*
X105468500Y-93875500D01*
X103468500Y-110365500D02*
X103468500Y-101865500D01*
X100428500Y-63215500D02*
X99468500Y-62255500D01*
D28*
X82398500Y-53645500D02*
X82398500Y-60715500D01*
X84858500Y-51185500D02*
X82398500Y-53645500D01*
D33*
X105468500Y-93875500D02*
X100428500Y-88835500D01*
X101098500Y-111365500D02*
X102468500Y-111365500D01*
X100428500Y-88835500D02*
X100428500Y-63215500D01*
X100103500Y-109638000D02*
X100103500Y-110370500D01*
X99468500Y-58865500D02*
X98968500Y-58365500D01*
D28*
X88498500Y-51185500D02*
X84858500Y-51185500D01*
D33*
X102468500Y-111365500D02*
X103468500Y-110365500D01*
X100103500Y-110370500D02*
X101098500Y-111365500D01*
D34*
%TO.N,SDS_RX*%
X80968500Y-67225500D02*
X80968500Y-67365500D01*
%TO.N,Net-(U4-CS)*%
X32629500Y-58365500D02*
X32629500Y-58253000D01*
D32*
%TO.N,RS232_RX*%
X101603500Y-109000500D02*
X101603500Y-110138000D01*
X85199100Y-52284400D02*
X85387400Y-52284400D01*
D28*
X85199100Y-52634900D02*
X83088500Y-54745500D01*
D32*
X89858500Y-56755500D02*
X96328500Y-56755500D01*
X97555500Y-57982500D02*
X97555500Y-81778500D01*
D28*
X83088500Y-62565500D02*
X80968500Y-64685500D01*
D32*
X96328500Y-56755500D02*
X97555500Y-57982500D01*
X85387400Y-52284400D02*
X89858500Y-56755500D01*
X97555500Y-81778500D02*
X96468500Y-82865500D01*
D28*
X85199100Y-52284400D02*
X85199100Y-52634900D01*
D32*
X96468500Y-103865500D02*
X101603500Y-109000500D01*
X96468500Y-82865500D02*
X96468500Y-103865500D01*
D28*
X83088500Y-54745500D02*
X83088500Y-62565500D01*
%TO.N,SDS_TX*%
X81209153Y-69765500D02*
X82468500Y-68506154D01*
X83728500Y-56421600D02*
X85185500Y-54964600D01*
X82468500Y-68506154D02*
X82468500Y-64865500D01*
X83728500Y-63605500D02*
X83728500Y-56421600D01*
X82468500Y-64865500D02*
X83728500Y-63605500D01*
D31*
X80968500Y-69765500D02*
X81209153Y-69765500D01*
D30*
%TO.N,PSM_EINT*%
X89468500Y-77365500D02*
X82748500Y-84085500D01*
D32*
X74018500Y-62505500D02*
X73968500Y-62555500D01*
X73968500Y-62555500D02*
X73968500Y-80075786D01*
D30*
X92968500Y-61865500D02*
X89468500Y-65365500D01*
X92968500Y-58865500D02*
X92968500Y-61865500D01*
X80968500Y-84805500D02*
X80968500Y-85005500D01*
X89468500Y-65365500D02*
X89468500Y-77365500D01*
D32*
X73968500Y-80075786D02*
X78898214Y-85005500D01*
D30*
X82748500Y-84085500D02*
X81688500Y-84085500D01*
D32*
X78898214Y-85005500D02*
X80968500Y-85005500D01*
D30*
X81688500Y-84085500D02*
X80968500Y-84805500D01*
D31*
%TO.N,Sensors PWR*%
X87505900Y-47402900D02*
X87968500Y-47865500D01*
X85185500Y-47402900D02*
X87505900Y-47402900D01*
D32*
%TO.N,BC660K Boot*%
X53760000Y-89960000D02*
X53760000Y-90260000D01*
X61970000Y-81750000D02*
X53760000Y-89960000D01*
X64560000Y-81770000D02*
X64540000Y-81750000D01*
X64540000Y-81750000D02*
X61970000Y-81750000D01*
D35*
%TO.N,ESP-BC RST*%
X80968500Y-82465500D02*
X80968500Y-82365500D01*
D30*
X88468500Y-76865500D02*
X88468500Y-64865500D01*
X80968500Y-82465500D02*
X82868500Y-82465500D01*
X88468500Y-64865500D02*
X91968500Y-61365500D01*
X82868500Y-82465500D02*
X88468500Y-76865500D01*
%TD*%
M02*
